<?xml version="1.0" standalone="no"?><svg xmlns="http://www.w3.org/2000/svg" viewBox="0 0 1440 320"><path fill="#fff" fill-opacity="1" d="M0,32L24,32C48,32,96,32,144,58.7C192,85,240,139,288,160C336,181,384,171,432,176C480,181,528,203,576,186.7C624,171,672,117,720,128C768,139,816,213,864,218.7C912,224,960,160,1008,160C1056,160,1104,224,1152,250.7C1200,277,1248,267,1296,266.7C1344,267,1392,277,1416,282.7L1440,288L1440,320L1416,320C1392,320,1344,320,1296,320C1248,320,1200,320,1152,320C1104,320,1056,320,1008,320C960,320,912,320,864,320C816,320,768,320,720,320C672,320,624,320,576,320C528,320,480,320,432,320C384,320,336,320,288,320C240,320,192,320,144,320C96,320,48,320,24,320L0,320Z"></path></svg>